<mxfile host="app.diagrams.net" modified="2022-05-03T14:41:32.313Z" agent="5.0 (Windows NT 10.0; Win64; x64) AppleWebKit/537.36 (KHTML, like Gecko) Chrome/100.0.4896.127 Safari/537.36" etag="1oxH2kVoYpboPXeUaP2A" version="17.5.0" type="github">
  <diagram id="yP8jTpwPNEDYZC2t_n5d" name="Page-1">
    <mxGraphModel dx="1489" dy="739" grid="1" gridSize="10" guides="1" tooltips="1" connect="1" arrows="1" fold="1" page="1" pageScale="1" pageWidth="850" pageHeight="1100" math="1" shadow="0">
      <root>
        <mxCell id="0" />
        <mxCell id="1" parent="0" />
        <mxCell id="reQnZ2_Xy1i72cDUKDa6-1" value="&lt;font style=&quot;font-size: 40px&quot;&gt;$$\frac{\partial voință}{\partial targetare}$$&lt;/font&gt;" style="text;html=1;align=center;verticalAlign=middle;resizable=0;points=[];autosize=1;strokeColor=none;fillColor=none;" parent="1" vertex="1">
          <mxGeometry x="-90" y="190" width="760" height="30" as="geometry" />
        </mxCell>
        <mxCell id="reQnZ2_Xy1i72cDUKDa6-2" value="" style="rounded=1;whiteSpace=wrap;html=1;fontSize=40;gradientColor=none;fillColor=none;strokeColor=#FF0000;" parent="1" vertex="1">
          <mxGeometry x="170" y="140" width="240" height="130" as="geometry" />
        </mxCell>
        <mxCell id="reQnZ2_Xy1i72cDUKDa6-3" value="&lt;span style=&quot;font-size: 25px&quot;&gt;nu își mai&amp;nbsp;&lt;br&gt;&lt;br&gt;&lt;/span&gt;" style="text;html=1;align=center;verticalAlign=middle;resizable=0;points=[];autosize=1;strokeColor=none;fillColor=none;fontSize=40;" parent="1" vertex="1">
          <mxGeometry x="295" y="305" width="130" height="110" as="geometry" />
        </mxCell>
        <mxCell id="reQnZ2_Xy1i72cDUKDa6-4" value="pun problema&lt;br&gt;de&amp;nbsp; &amp;nbsp; XISTENȚĂ" style="text;html=1;align=center;verticalAlign=middle;resizable=0;points=[];autosize=1;strokeColor=none;fillColor=none;fontSize=25;" parent="1" vertex="1">
          <mxGeometry x="265" y="345" width="190" height="70" as="geometry" />
        </mxCell>
        <mxCell id="reQnZ2_Xy1i72cDUKDa6-5" value="$$\exists$$" style="text;html=1;align=center;verticalAlign=middle;resizable=0;points=[];autosize=1;strokeColor=none;fillColor=none;fontSize=25;" parent="1" vertex="1">
          <mxGeometry x="247" y="376" width="140" height="40" as="geometry" />
        </mxCell>
        <mxCell id="reQnZ2_Xy1i72cDUKDa6-7" value="" style="ellipse;whiteSpace=wrap;html=1;dashed=1;fontSize=25;strokeColor=#330000;fillColor=none;gradientColor=none;" parent="1" vertex="1">
          <mxGeometry x="248.5" y="315" width="223" height="130" as="geometry" />
        </mxCell>
        <mxCell id="reQnZ2_Xy1i72cDUKDa6-8" value="" style="endArrow=classic;html=1;fontSize=25;curved=1;" parent="1" edge="1">
          <mxGeometry width="50" height="50" relative="1" as="geometry">
            <mxPoint x="254" y="350" as="sourcePoint" />
            <mxPoint x="224" y="270" as="targetPoint" />
            <Array as="points">
              <mxPoint x="214" y="320" />
            </Array>
          </mxGeometry>
        </mxCell>
      </root>
    </mxGraphModel>
  </diagram>
</mxfile>
